<?xml version="1.0" encoding="UTF-8"?>
<svg version="1.1" xmlns="http://www.w3.org/2000/svg" width="600" height="600">
<path d="M0 0 C198 0 396 0 600 0 C600 198 600 396 600 600 C402 600 204 600 0 600 C0 402 0 204 0 0 Z " fill="#FEFEFE" transform="translate(0,0)"/>
<path d="M0 0 C8.25 0 16.5 0 25 0 C33.88382688 27.68792711 33.88382688 27.68792711 37 38 C40.05802083 30.32031014 42.34179706 22.41756094 44.6875 14.5 C45.1071643 13.09106909 45.52708407 11.68221424 45.94726562 10.2734375 C46.96826759 6.84995951 47.98400674 3.42498357 49 0 C56.59 0 64.18 0 72 0 C72 22.77 72 45.54 72 69 C66.72 69 61.44 69 56 69 C55.505 48.21 55.505 48.21 55 27 C51.09381917 40.07337583 51.09381917 40.07337583 47.19165039 53.14794922 C46.70213144 54.78357228 46.21247611 56.41915453 45.72265625 58.0546875 C45.46867065 58.90812744 45.21468506 59.76156738 44.95300293 60.64086914 C44.70949097 61.45273682 44.465979 62.26460449 44.21508789 63.10107422 C43.89865074 64.16030594 43.89865074 64.16030594 43.57582092 65.24093628 C43 67 43 67 42 69 C38.04 69 34.08 69 30 69 C26.04 56.13 22.08 43.26 18 30 C17.67 42.87 17.34 55.74 17 69 C11.39 69 5.78 69 0 69 C0 46.23 0 23.46 0 0 Z " fill="#58595A" transform="translate(53,259)"/>
<path d="M0 0 C2.92210296 1.36839943 4.60776516 2.77466526 7 5 C7.78375 4.360625 8.5675 3.72125 9.375 3.0625 C14.9616261 -1.32699194 21.12390233 -0.55540721 28 0 C31.73688837 1.18685202 33.5097156 3.2349473 35.6262207 6.53759766 C37.4278494 11.0783295 37.3773116 14.93783572 37.29296875 19.7734375 C37.28872391 20.6971817 37.28447906 21.6209259 37.28010559 22.57266235 C37.26338673 25.5070783 37.22574716 28.44079356 37.1875 31.375 C37.17244438 33.37108379 37.15875751 35.36717841 37.14648438 37.36328125 C37.11606424 42.24267102 37.05733028 47.12055629 37 52 C30.07 52 23.14 52 16 52 C15.505 34.675 15.505 34.675 15 17 C13.35 17.33 11.7 17.66 10 18 C9.67 29.22 9.34 40.44 9 52 C2.4 52 -4.2 52 -11 52 C-11.33 40.45 -11.66 28.9 -12 17 C-13.32 16.67 -14.64 16.34 -16 16 C-18.00503509 18.00503509 -17.25588663 22.00025444 -17.31640625 24.75390625 C-17.33718735 25.52935287 -17.35796844 26.3047995 -17.37937927 27.10374451 C-17.44495802 29.58990308 -17.50379799 32.07617045 -17.5625 34.5625 C-17.60567733 36.24415204 -17.64929136 37.92579294 -17.69335938 39.60742188 C-17.80147281 43.7381712 -17.90048331 47.86899867 -18 52 C-24.6 52 -31.2 52 -38 52 C-38 35.17 -38 18.34 -38 1 C-31.73 1 -25.46 1 -19 1 C-18.67 1.66 -18.34 2.32 -18 3 C-17.30648438 2.5153125 -16.61296875 2.030625 -15.8984375 1.53125 C-10.85332798 -1.13409088 -5.55733379 -0.76370722 0 0 Z " fill="#57585A" transform="translate(307,276)"/>
<path d="M0 0 C6.06100262 2.97081966 8.74999458 8.55746451 11.22265625 14.5625 C13.14903132 25.24512541 12.61192796 36.01948017 6.59765625 45.3125 C3.4413072 49.260264 0.39601774 51.07818072 -4.70703125 51.6875 C-11.48511691 51.98140073 -12.92778077 51.48304198 -19.08984375 47.375 C-19.08984375 53.975 -19.08984375 60.575 -19.08984375 67.375 C-25.35984375 67.375 -31.62984375 67.375 -38.08984375 67.375 C-38.08984375 45.265 -38.08984375 23.155 -38.08984375 0.375 C-32.14984375 0.375 -26.20984375 0.375 -20.08984375 0.375 C-19.75984375 1.365 -19.42984375 2.355 -19.08984375 3.375 C-18.32671875 2.715 -17.56359375 2.055 -16.77734375 1.375 C-11.79772027 -1.92901558 -5.58524649 -1.67035409 0 0 Z " fill="#57585A" transform="translate(387.08984375,276.625)"/>
<path d="M0 0 C5.28 0 10.56 0 16 0 C16 22.77 16 45.54 16 69 C11.05 69 6.1 69 1 69 C0.67 67.68 0.34 66.36 0 65 C-1.175625 65.9590625 -1.175625 65.9590625 -2.375 66.9375 C-6.54394828 70.21310222 -9.79721248 70.51839368 -15 70 C-21.61138334 67.87091045 -25.76901804 64.53875084 -29.109375 58.47265625 C-31.498401 53.55855239 -31.65090588 49.01873029 -31.5625 43.625 C-31.55299316 42.696875 -31.54348633 41.76875 -31.53369141 40.8125 C-31.29614072 33.01314788 -29.9242468 27.17515772 -24.47265625 21.375 C-20.73925153 18.03108534 -17.64759439 16.15543343 -12.6875 15.6875 C-8.56016743 16.03727395 -4.06684902 16.93315098 -1 20 C-0.67 13.4 -0.34 6.8 0 0 Z " fill="#58595B" transform="translate(218,259)"/>
<path d="M0 0 C0.90234375 -0.00708984 1.8046875 -0.01417969 2.734375 -0.02148438 C8.98191026 0.03771239 14.1275346 0.71765483 19.08203125 4.8671875 C23.67271421 10.86914049 24.67903365 15.55622752 24.7890625 23.01953125 C24.80842865 23.83371017 24.8277948 24.6478891 24.8477478 25.48674011 C24.90728752 28.07438852 24.95382583 30.66208203 25 33.25 C25.0382034 35.00978449 25.0772565 36.76955074 25.1171875 38.52929688 C25.21455976 42.8319337 25.29432992 47.13438818 25.375 51.4375 C18.775 51.4375 12.175 51.4375 5.375 51.4375 C4.88 49.4575 4.88 49.4575 4.375 47.4375 C3.67375 48.05625 2.9725 48.675 2.25 49.3125 C-2.95270368 53.15797663 -8.21812199 54.21973511 -14.625 53.4375 C-20.49852702 51.6455765 -23.17651663 49.30594711 -26.625 44.4375 C-28.39872951 39.11631146 -28.50961572 34.27750069 -26.0625 29.1875 C-19.71853323 22.03020416 -12.29288024 18.84646332 -2.6953125 18.2578125 C-0.32926449 18.25110981 2.01340285 18.2991852 4.375 18.4375 C4.045 17.1175 3.715 15.7975 3.375 14.4375 C-1.90699593 13.23761955 -1.90699593 13.23761955 -6.625 15.4375 C-6.955 16.4275 -7.285 17.4175 -7.625 18.4375 C-10.04200987 18.29620713 -12.45850429 18.14963513 -14.875 18 C-15.55691406 17.96068359 -16.23882812 17.92136719 -16.94140625 17.88085938 C-20.26948041 17.67083528 -23.42755402 17.41815998 -26.625 16.4375 C-25.14342308 10.78056995 -22.79737306 6.35968895 -17.74291992 3.29711914 C-11.71571257 0.44357551 -6.6201069 -0.14785541 0 0 Z " fill="#595A5C" transform="translate(430.625,275.5625)"/>
<path d="M0 0 C6.8728731 4.60352821 10.24899521 10.45863172 12.0703125 18.38671875 C12.0703125 21.68671875 12.0703125 24.98671875 12.0703125 28.38671875 C0.8503125 28.38671875 -10.3696875 28.38671875 -21.9296875 28.38671875 C-19.90352871 36.15948913 -19.90352871 36.15948913 -15.9296875 38.38671875 C-13.014762 38.97053835 -13.014762 38.97053835 -9.9296875 38.38671875 C-7.09557595 36.05322675 -7.09557595 36.05322675 -4.9296875 33.38671875 C-3.9296875 32.38671875 -3.9296875 32.38671875 -0.33203125 32.2890625 C1.15628117 32.29573655 2.64457682 32.30769692 4.1328125 32.32421875 C5.27073242 32.33098633 5.27073242 32.33098633 6.43164062 32.33789062 C8.31123121 32.34971195 10.19078149 32.36764797 12.0703125 32.38671875 C10.43474149 39.9001231 7.4655804 44.11162119 1.0703125 48.38671875 C-5.33089567 52.19760751 -12.68551967 52.29984915 -19.9296875 51.38671875 C-28.44856881 48.75743439 -33.2096884 43.7387173 -37.8046875 36.38671875 C-40.51970589 29.20086171 -40.19021306 19.46861908 -37.3671875 12.38671875 C-33.51234466 5.25458791 -28.25491754 0.72824476 -20.60546875 -1.953125 C-13.40979079 -3.72840905 -6.64510403 -3.39400474 0 0 Z " fill="#595A5C" transform="translate(169.9296875,277.61328125)"/>
<path d="M0 0 C5.57451002 3.43959129 9.66814473 6.50873536 11.9375 12.8125 C11.9375 15.1225 11.9375 17.4325 11.9375 19.8125 C3.5225 20.3075 3.5225 20.3075 -5.0625 20.8125 C-6.5475 17.3475 -6.5475 17.3475 -8.0625 13.8125 C-10.02573357 12.58957415 -10.02573357 12.58957415 -12.0625 12.8125 C-15.48382812 16.23382812 -15.24096395 20.00188897 -15.3125 24.6875 C-15.28832049 29.63220935 -14.79573852 32.71264222 -12.0625 36.8125 C-9.5875 36.3175 -9.5875 36.3175 -7.0625 35.8125 C-6.4025 33.5025 -5.7425 31.1925 -5.0625 28.8125 C0.8775 29.4725 6.8175 30.1325 12.9375 30.8125 C10.70827347 39.72940612 8.48776348 43.7204834 1 48.75 C-5.84949616 52.25601329 -14.21236282 52.03452204 -21.55859375 50.18359375 C-27.59326148 47.56033663 -32.21442502 42.44966884 -35.1640625 36.64453125 C-38.35088675 28.23071956 -37.9894228 20.30882805 -34.3203125 12.13671875 C-31.31079755 6.57565852 -27.45437878 2.09008857 -21.6015625 -0.53125 C-14.93327026 -2.25474707 -6.50752023 -2.52747438 0 0 Z " fill="#58595B" transform="translate(496.0625,277.1875)"/>
<path d="M0 0 C0 5.28 0 10.56 0 16 C2.97 16 5.94 16 9 16 C9 20.62 9 25.24 9 30 C6.03 30 3.06 30 0 30 C0.33 36.93 0.66 43.86 1 51 C3.64 51 6.28 51 9 51 C9 55.95 9 60.9 9 66 C1.63765114 68.45411629 -5.23905886 69.65272887 -12.5 66.25 C-16.60524693 63.8741618 -18.49602824 61.51191528 -20 57 C-20.08315752 54.93501108 -20.10735878 52.8674211 -20.09765625 50.80078125 C-20.09282227 48.98803711 -20.09282227 48.98803711 -20.08789062 47.13867188 C-20.07951172 45.87603516 -20.07113281 44.61339844 -20.0625 43.3125 C-20.05798828 42.03826172 -20.05347656 40.76402344 -20.04882812 39.45117188 C-20.03702873 36.30073436 -20.02056597 33.15039051 -20 30 C-22.64 30 -25.28 30 -28 30 C-28 25.38 -28 20.76 -28 16 C-25.03 16 -22.06 16 -19 16 C-19.01160156 15.33613281 -19.02320313 14.67226563 -19.03515625 13.98828125 C-19.04417969 13.10527344 -19.05320312 12.22226562 -19.0625 11.3125 C-19.07410156 10.44238281 -19.08570313 9.57226562 -19.09765625 8.67578125 C-19.00043483 6.01191443 -18.59364333 3.59426811 -18 1 C-15.93769732 0.8309093 -13.8751477 0.66482867 -11.8125 0.5 C-10.08966797 0.36078125 -10.08966797 0.36078125 -8.33203125 0.21875 C-5.55969845 0.03674456 -2.77830077 0 0 0 Z " fill="#5A5B5D" transform="translate(538,261)"/>
<path d="M0 0 C6.93 0 13.86 0 21 0 C21 22.77 21 45.54 21 69 C14.07 69 7.14 69 0 69 C0 46.23 0 23.46 0 0 Z " fill="#59595C" transform="translate(241,259)"/>
<path d="M0 0 C-1.52588031 3.92474023 -3.22935093 7.74232464 -5 11.5625 C-5.7734375 13.23505859 -5.7734375 13.23505859 -6.5625 14.94140625 C-7.036875 15.95074219 -7.51125 16.96007812 -8 18 C-8.21269531 18.64662598 -8.42539063 19.29325195 -8.64453125 19.95947266 C-10.71975192 23.08351704 -13.8113359 24.20092462 -17.125 25.70703125 C-17.8277002 26.03668381 -18.53040039 26.36633636 -19.25439453 26.70597839 C-20.73776406 27.39846663 -22.22401843 28.08480412 -23.71289062 28.76538086 C-25.99844805 29.81178946 -28.27293202 30.87979489 -30.546875 31.95117188 C-31.98897931 32.62109346 -33.43166868 33.28975735 -34.875 33.95703125 C-35.90004639 34.43811089 -35.90004639 34.43811089 -36.94580078 34.9289093 C-38.60402012 35.68073109 -40.29975973 36.3487624 -42 37 C-42.66 36.67 -43.32 36.34 -44 36 C-41.15350743 31.14214595 -38.2697912 26.31175964 -35.3203125 21.515625 C-33.22885141 18.10493461 -31.29513299 14.68000055 -29.4921875 11.109375 C-22.43607575 -2.00339924 -14.08667127 -2.04012507 0 0 Z " fill="#58595B" transform="translate(219,332)"/>
<path d="M0 0 C3.35782255 0.90902378 5.03084552 2.8960882 7.12109375 5.57421875 C7.45109375 5.90421875 7.78109375 6.23421875 8.12109375 6.57421875 C8.47322064 11.8561221 8.62743085 15.3165237 5.12109375 19.57421875 C1.69189803 22.14611554 -1.71830111 22.07636075 -5.87890625 21.57421875 C-9.44781936 19.52539826 -11.21185378 18.30661229 -12.68359375 14.484375 C-13.34925151 11.06849965 -13.36234177 8.63197566 -11.90234375 5.4375 C-8.62872848 0.92942088 -5.5326327 -0.41984565 0 0 Z " fill="#58595B" transform="translate(253.87890625,230.42578125)"/>
<path d="M0 0 C-3.44292574 2.29528382 -6.81271288 3.13244133 -10.75 4.1875 C-19.32067618 6.61101426 -27.1113566 9.89238805 -35 14 C-35.65887207 14.34047363 -36.31774414 14.68094727 -36.99658203 15.03173828 C-46.78551145 20.15011742 -55.41482315 26.07798156 -64 33 C-65.59821674 34.21619217 -67.2014391 35.42587411 -68.8125 36.625 C-69.864375 37.40875 -70.91625 38.1925 -72 39 C-72.63702798 35.48218993 -72.76089792 32.50667978 -72 29 C-70.14038086 27.15087891 -70.14038086 27.15087891 -67.65234375 25.5390625 C-66.28625977 24.65190552 -66.28625977 24.65190552 -64.89257812 23.74682617 C-60.3172896 20.98381221 -55.68468562 18.39328904 -50.9375 15.9375 C-49.93452881 15.41800781 -48.93155762 14.89851562 -47.89819336 14.36328125 C-33.93539437 7.27445848 -15.93987909 -0.63661575 0 0 Z " fill="#58585A" transform="translate(341,236)"/>
<path d="M0 0 C3.30111795 0.55018633 4.01609076 0.92178718 6 3.5 C6.38818359 5.52124023 6.38818359 5.52124023 6.3984375 7.80859375 C6.40230469 8.63810547 6.40617188 9.46761719 6.41015625 10.32226562 C6.39855469 11.18529297 6.38695312 12.04832031 6.375 12.9375 C6.38660156 13.79666016 6.39820313 14.65582031 6.41015625 15.54101562 C6.3931373 19.19725309 6.37209439 21.78627508 4.6640625 25.0625 C3 26.5 3 26.5 0 27.0625 C-3 26.5 -3 26.5 -4.6640625 24.46484375 C-6.33295725 20.76106856 -6.44114458 17.48337337 -6.375 13.5 C-6.38660156 12.80132812 -6.39820313 12.10265625 -6.41015625 11.3828125 C-6.37979292 6.01862481 -5.91449299 0.98574883 0 0 Z " fill="#FCFCFD" transform="translate(211,288.5)"/>
<path d="M0 0 C2.4375 0.9375 2.4375 0.9375 3.5703125 2.56640625 C4.72469478 5.72275779 4.73917256 8.45599261 4.75 11.8125 C4.76675781 13.00617188 4.78351563 14.19984375 4.80078125 15.4296875 C4.40790185 19.22329715 3.33682304 21.6600402 1.4375 24.9375 C-0.9375 25.125 -0.9375 25.125 -3.5625 24.9375 C-6.34345904 20.76606144 -5.89320347 17.33787332 -5.875 12.4375 C-5.89111328 11.56996094 -5.90722656 10.70242188 -5.92382812 9.80859375 C-5.92447266 8.97457031 -5.92511719 8.14054687 -5.92578125 7.28125 C-5.92876221 6.52005859 -5.93174316 5.75886719 -5.93481445 4.97460938 C-5.27417596 1.35994211 -3.63457777 -0.08864824 0 0 Z " fill="#F5F5F5" transform="translate(373.5625,290.0625)"/>
<path d="M0 0 C-3.44246351 2.29497567 -6.81254828 3.13396326 -10.75 4.1875 C-18.10746321 6.2434242 -24.78680975 8.9819264 -31.6328125 12.3515625 C-35.05006267 14.02450864 -38.49291804 15.52756101 -42 17 C-42.66 16.34 -43.32 15.68 -44 15 C-43 12 -43 12 -40.6484375 10.60546875 C-32.92098318 7.25813472 -25.14589947 4.77398551 -17 2.625 C-16.00919434 2.36227295 -15.01838867 2.0995459 -13.99755859 1.82885742 C-9.24376945 0.6252591 -4.94665223 -0.35094492 0 0 Z " fill="#5B5C5D" transform="translate(341,236)"/>
<path d="M0 0 C2.9375 2.3125 2.9375 2.3125 5 5 C5 5.99 5 6.98 5 8 C-0.28 8 -5.56 8 -11 8 C-10 3 -10 3 -8.875 1.1875 C-5.80189505 -0.7587998 -3.54118756 -0.48843966 0 0 Z " fill="#FAFAFA" transform="translate(160,287)"/>
<path d="M0 0 C0.25 7.625 0.25 7.625 -2 11 C-5.5 11.8125 -5.5 11.8125 -9 12 C-11 10 -11 10 -11.4375 7.625 C-11 5 -11 5 -8.6875 2.75 C-5.58438565 0.7293674 -3.70856287 0 0 0 Z " fill="#F7F7F8" transform="translate(435,304)"/>
<path d="M0 0 C0.33 1.65 0.66 3.3 1 5 C-3.62 5.33 -8.24 5.66 -13 6 C-12.34 5.67 -11.68 5.34 -11 5 C-10.7834375 4.0409375 -10.7834375 4.0409375 -10.5625 3.0625 C-9.05893989 -2.45055372 -4.37434936 -0.82534894 0 0 Z " fill="#F6F7F7" transform="translate(434,289)"/>
<path d="M0 0 C-3.57995133 2.38663422 -7.22029634 3.35265318 -11.3125 4.5 C-12.80888466 4.92606293 -14.30498412 5.35312896 -15.80078125 5.78125 C-16.87489258 6.08603271 -16.87489258 6.08603271 -17.97070312 6.39697266 C-19.78547507 6.93625161 -21.57678636 7.5530656 -23.36328125 8.1796875 C-26.34418601 9.10708009 -28.0384804 8.87103518 -31 8 C-27.51800827 4.51800827 -22.4278565 4.07166097 -17.75 2.875 C-16.71230469 2.59785156 -15.67460937 2.32070312 -14.60546875 2.03515625 C-13.59613281 1.77347656 -12.58679688 1.51179687 -11.546875 1.2421875 C-10.62745117 1.0035498 -9.70802734 0.76491211 -8.76074219 0.51904297 C-5.78383514 -0.04064083 -3.02218248 -0.0884297 0 0 Z " fill="#686968" transform="translate(341,236)"/>
</svg>
